<svg width="102" height="90" viewBox="0 0 102 90" fill="none" xmlns="http://www.w3.org/2000/svg">
<g clip-path="url(#clip0_2458_11468)">
<path d="M80.0432 33.936C75.7534 15.147 60.9309 1.58399 43.5325 1.03999C34.3345 0.752396 24.6556 4.1503 17.6087 16.0408C5.01153 37.2964 18.3828 51.9847 27.7049 58.9642C32.2086 62.343 36.2667 66.4057 39.7617 71.0346C46.0585 79.3576 58.172 89.6999 72.5987 73.495C83.0552 61.7497 82.9006 46.4513 80.0432 33.936Z" fill="#FFF5FC"/>
<path d="M101.998 38.1205C101.998 42.997 98.4494 50.7797 94.0715 50.7797C89.6936 50.7797 86.1445 42.997 86.1445 38.1205C86.1445 35.7788 86.9797 33.533 88.4663 31.8771C89.9529 30.2213 91.9691 29.291 94.0715 29.291C96.1739 29.291 98.1901 30.2213 99.6767 31.8771C101.163 33.533 101.998 35.7788 101.998 38.1205Z" fill="#EE93D4"/>
<path d="M94.3657 51.0938C93.3695 51.4758 93.131 52.9889 93.4737 54.0986C93.8163 55.2084 94.542 56.1289 94.9072 57.2296C95.0738 57.7848 95.1934 58.3561 95.2644 58.9361C95.473 60.317 95.6822 61.7222 95.5215 63.111C95.369 64.4285 94.8898 65.6706 94.3552 66.858C93.3198 69.1571 92.0603 71.3222 90.5996 73.3143" stroke="#2F2E41" stroke-width="0.697073"/>
<path d="M94.8367 51.6298C94.3273 51.2657 93.818 51.2657 93.3086 51.6298V49.9277H94.8367V51.6298Z" fill="#FF6584"/>
<path d="M93.3105 50.7414C93.548 50.8753 93.8106 50.9445 94.0767 50.9432C94.3428 50.942 94.6049 50.8704 94.8414 50.7344" stroke="#2F2E41" stroke-width="0.697073"/>
<path opacity="0.4" d="M97.3667 36.6281C98.2897 36.6281 99.038 35.6279 99.038 34.3941C99.038 33.1603 98.2897 32.1602 97.3667 32.1602C96.4436 32.1602 95.6953 33.1603 95.6953 34.3941C95.6953 35.6279 96.4436 36.6281 97.3667 36.6281Z" fill="white"/>
<path d="M0 36.7358C0 41.6122 3.54902 49.395 7.92697 49.395C12.3049 49.395 15.8539 41.6122 15.8539 36.7358C15.8539 34.394 15.0188 32.1482 13.5322 30.4924C12.0456 28.8365 10.0293 27.9063 7.92697 27.9062C5.8246 27.9063 3.80835 28.8365 2.32175 30.4924C0.83516 32.1482 0 34.394 0 36.7358Z" fill="#EE93D4"/>
<path d="M7.63267 49.7109C8.62884 50.093 8.86733 51.6061 8.52468 52.7158C8.18204 53.8255 7.45634 54.746 7.09119 55.8468C6.92458 56.402 6.80497 56.9733 6.73394 57.5533C6.52535 58.9342 6.31618 60.3394 6.4769 61.7282C6.62937 63.0457 7.10858 64.2878 7.6432 65.4752C8.6786 67.7743 9.93803 69.9394 11.3988 71.9315" stroke="#2F2E41" stroke-width="0.697073"/>
<path d="M7.16406 50.249C7.67343 49.8849 8.18279 49.8849 8.69215 50.249V48.5469H7.16406V50.249Z" fill="#FF6584"/>
<path d="M8.68707 49.3586C8.44963 49.4925 8.18704 49.5616 7.9209 49.5604C7.65477 49.5592 7.3927 49.4876 7.15625 49.3516" stroke="#2F2E41" stroke-width="0.697073"/>
<path opacity="0.4" d="M4.63229 35.2492C5.55535 35.2492 6.30364 34.249 6.30364 33.0152C6.30364 31.7814 5.55535 30.7812 4.63229 30.7812C3.70923 30.7812 2.96094 31.7814 2.96094 33.0152C2.96094 34.249 3.70923 35.2492 4.63229 35.2492Z" fill="white"/>
<path d="M96.2701 75.5649C96.2701 80.5882 75.0615 89.5007 48.8994 89.5007C22.7372 89.5007 4.01172 71.4395 4.01172 66.4162C4.01172 61.393 22.7372 71.3097 48.8994 71.3097C75.0615 71.3097 96.2701 70.5416 96.2701 75.5649Z" fill="#3F3D56"/>
<path opacity="0.1" d="M96.2701 75.5649C96.2701 80.5882 75.0615 89.5007 48.8994 89.5007C22.7372 89.5007 4.01172 71.4395 4.01172 66.4162C4.01172 61.393 22.7372 71.3097 48.8994 71.3097C75.0615 71.3097 96.2701 70.5416 96.2701 75.5649Z" fill="black"/>
<path d="M96.2701 75.5116C96.2701 80.5349 75.0615 84.6071 48.8994 84.6071C22.7372 84.6071 4.01172 71.4395 4.01172 66.4162C4.01172 61.3929 22.7372 66.4162 48.8994 66.4162C75.0615 66.4162 96.2701 70.4884 96.2701 75.5116Z" fill="#3F3D56"/>
<path d="M41.66 61.3563L40.7006 68.1786C40.7006 68.1786 35.9778 70.9732 39.2986 71.0554C42.6193 71.1376 58.2636 71.0554 58.2636 71.0554C58.2636 71.0554 61.2892 71.0554 56.4926 68.0964L55.5332 60.9453L41.66 61.3563Z" fill="#2F2E41"/>
<path opacity="0.1" d="M38.6295 70.9814C39.3837 70.234 40.6996 69.4551 40.6996 69.4551L41.659 62.6329L55.5322 62.6474L56.4916 69.3729C57.6101 70.063 58.303 70.592 58.7084 70.9977C59.3244 70.8412 59.9977 70.2593 56.4916 68.0964L55.5322 60.9453L41.659 61.3563L40.6996 68.1786C40.6996 68.1786 36.7311 70.5272 38.6295 70.9814Z" fill="black"/>
<path d="M77.5775 13.8047H19.4691C18.2554 13.8047 17.2715 14.9006 17.2715 16.2525V59.8526C17.2715 61.2045 18.2554 62.3004 19.4691 62.3004H77.5775C78.7912 62.3004 79.7751 61.2045 79.7751 59.8526V16.2525C79.7751 14.9006 78.7912 13.8047 77.5775 13.8047Z" fill="#2F2E41"/>
<path d="M77.6684 16.3945H19.3711V52.7253H77.6684V16.3945Z" fill="white"/>
<path d="M48.5216 15.6547C48.7256 15.6547 48.8909 15.4706 48.8909 15.2434C48.8909 15.0162 48.7256 14.832 48.5216 14.832C48.3177 14.832 48.1523 15.0162 48.1523 15.2434C48.1523 15.4706 48.3177 15.6547 48.5216 15.6547Z" fill="#F2F2F2"/>
<path d="M79.775 55.6055V59.8567C79.7751 60.1781 79.7183 60.4964 79.6078 60.7934C79.4974 61.0904 79.3355 61.3603 79.1315 61.5876C78.9274 61.8149 78.6851 61.9952 78.4185 62.1182C78.1518 62.2412 77.8661 62.3045 77.5775 62.3045H19.4691C19.1805 62.3045 18.8947 62.2412 18.628 62.1182C18.3614 61.9952 18.1191 61.8149 17.9151 61.5876C17.711 61.3603 17.5491 61.0904 17.4387 60.7934C17.3283 60.4964 17.2714 60.1781 17.2715 59.8567V55.6055H79.775Z" fill="#2F2E41"/>
<path d="M64.8301 75.4942V76.3162H25.1289V75.6587L25.1835 75.4942L26.162 72.5352H64.0183L64.8301 75.4942Z" fill="#2F2E41"/>
<path d="M80.1068 74.6877C80.0345 75.0321 79.7614 75.3954 79.1445 75.739C76.9307 76.9719 72.4293 75.4102 72.4293 75.4102C72.4293 75.4102 68.9609 74.7526 68.9609 73.0265C69.0583 72.9522 69.1599 72.8849 69.265 72.8251C70.1957 72.2766 73.2818 70.9232 78.7537 72.8824C79.1568 73.0233 79.5169 73.2862 79.7938 73.6416C80.0156 73.9307 80.1894 74.2975 80.1068 74.6877Z" fill="#2F2E41"/>
<path opacity="0.1" d="M80.1094 74.6876C77.3997 75.8442 74.9844 75.9305 72.5057 74.0128C71.2556 73.0462 70.1199 72.807 69.2676 72.8251C70.1983 72.2766 73.2844 70.9232 78.7563 72.8824C79.1594 73.0233 79.5195 73.2862 79.7964 73.6416C80.0182 73.9307 80.192 74.2975 80.1094 74.6876Z" fill="black"/>
<path d="M76.7093 74.013C77.2391 74.013 77.6686 73.8658 77.6686 73.6843C77.6686 73.5027 77.2391 73.3555 76.7093 73.3555C76.1795 73.3555 75.75 73.5027 75.75 73.6843C75.75 73.8658 76.1795 74.013 76.7093 74.013Z" fill="#F2F2F2"/>
<path d="M48.5212 60.5336C49.2956 60.5336 49.9233 59.8344 49.9233 58.9719C49.9233 58.1094 49.2956 57.4102 48.5212 57.4102C47.7469 57.4102 47.1191 58.1094 47.1191 58.9719C47.1191 59.8344 47.7469 60.5336 48.5212 60.5336Z" fill="#F2F2F2"/>
<path opacity="0.1" d="M64.8301 75.4941V76.3161H25.1289V75.6586L25.1835 75.4941H64.8301Z" fill="black"/>
<path d="M83.1899 33.4375C82.1937 33.8195 81.9552 35.3327 82.2979 36.4424C82.6405 37.5521 83.3662 38.4726 83.7314 39.5734C83.898 40.1285 84.0176 40.6999 84.0886 41.2798C84.2972 42.6608 84.5064 44.066 84.3457 45.4548C84.1932 46.7723 83.714 48.0143 83.1794 49.2018C82.144 51.5008 80.8845 53.666 79.4238 55.6581" stroke="#2F2E41" stroke-width="0.697073"/>
<path d="M90.8266 20.4584C90.8266 25.3348 87.2776 33.1176 82.8996 33.1176C78.5217 33.1176 74.9727 25.3348 74.9727 20.4584C74.9727 18.1167 75.8078 15.8709 77.2944 14.215C78.781 12.5592 80.7973 11.6289 82.8996 11.6289C85.002 11.6289 87.0182 12.5592 88.5048 14.215C89.9914 15.8709 90.8266 18.1167 90.8266 20.4584Z" fill="#DE5476"/>
<path d="M83.6629 33.9716C83.1535 33.6075 82.6441 33.6075 82.1348 33.9716V32.2695H83.6629V33.9716Z" fill="#002C96"/>
<path d="M82.1387 33.0832C82.3761 33.2171 82.6387 33.2863 82.9048 33.285C83.171 33.2838 83.433 33.2122 83.6695 33.0762" stroke="#2F2E41" stroke-width="0.697073"/>
<path opacity="0.4" d="M86.1948 18.9719C87.1178 18.9719 87.8661 17.9717 87.8661 16.7379C87.8661 15.5041 87.1178 14.5039 86.1948 14.5039C85.2717 14.5039 84.5234 15.5041 84.5234 16.7379C84.5234 17.9717 85.2717 18.9719 86.1948 18.9719Z" fill="white"/>
<path d="M57.5333 31.7266V40.9333L55.3483 45.8437V45.8442L55.279 45.9992L49.4942 45.5737L47.2705 45.4099L42.1094 45.0301V34.0172L47.2705 34.1794L49.5785 34.252L55.4175 34.4357L57.5333 31.7266Z" fill="#EE93D4"/>
<path opacity="0.1" d="M57.646 32.2656V40.9292L57.1121 42.1287V42.1292L56.5647 43.3587V43.3591L55.4609 45.8396L55.5843 36.6328L55.6093 34.7757L56.6589 33.4823V33.4819L57.1164 32.9181L57.646 32.2656Z" fill="black"/>
<path d="M57.943 29.2741V32.4899L57.6463 33.0162L57.1164 33.9567L56.647 34.7898L55.6096 36.6307L55.5847 36.6293L41.7676 35.8378V32.666L41.8024 32.6242L43.452 30.6352L44.0491 29.9155L45.1292 28.6133L57.943 29.2741Z" fill="#002C96"/>
<path opacity="0.1" d="M55.6096 33.4598V36.6315L41.7676 35.8385V32.6668L41.8024 32.625L55.6096 33.4598Z" fill="black"/>
<path opacity="0.15" d="M57.9447 29.2754V32.4911L55.6113 36.632V33.4603L57.9447 29.2754Z" fill="black"/>
<path d="M57.1191 30.7562L57.1179 32.917L57.1175 33.9592L57.1136 42.1277V42.1281L56.5661 43.3577L56.6481 34.7923L56.6603 33.4813V33.4808L56.6789 31.5457L43.4531 30.6377L44.0502 29.918L57.1191 30.7562Z" fill="white"/>
<path d="M50.6277 30.8594L49.7011 33.1011L49.6928 34.2439L49.6085 45.5655L47.3848 45.4017V32.9519L48.5712 30.8594H50.6277Z" fill="white"/>
<path d="M47.5758 31.0104C47.0404 31.2088 46.465 31.2313 45.9184 31.0752C45.812 31.0522 45.7122 31.0007 45.6277 30.925C45.5368 30.8132 45.4746 30.6761 45.4478 30.5282C45.3512 30.2226 45.2976 29.9021 45.2891 29.5783C45.2957 29.2549 45.4068 28.9174 45.6436 28.7303C45.6918 28.6978 45.7369 28.6601 45.7783 28.6176C45.8278 28.5481 45.8633 28.4677 45.8826 28.3817C46.0446 27.8434 46.3587 27.2749 46.8625 27.1888C47.3274 27.1092 47.7504 27.4709 48.1086 27.8104L48.8947 28.5555C48.9819 28.2944 49.138 28.0687 49.3425 27.9081C49.5469 27.7476 49.7902 27.6596 50.0403 27.6558C50.2904 27.652 50.5357 27.7326 50.744 27.8869C50.9523 28.0412 51.1139 28.262 51.2074 28.5204C51.6838 27.9227 52.2841 27.4639 52.9562 27.1839C53.1051 27.1221 53.28 27.0717 53.4158 27.1638C53.4997 27.2327 53.5633 27.3278 53.5987 27.437C53.8127 27.9588 53.9286 28.5237 53.9395 29.0971C53.9944 29.0762 54.0541 29.0763 54.109 29.0974C54.1639 29.1185 54.2109 29.1594 54.2426 29.2136C54.3035 29.3241 54.3382 29.45 54.3435 29.5796C54.3644 29.7797 54.3749 29.981 54.3748 30.1825C54.3747 30.395 54.357 30.6245 54.2327 30.7856C54.0721 30.9938 53.7947 31.0158 53.5483 31.0224C53.6669 31.1397 53.609 31.3759 53.4778 31.4752C53.3465 31.5745 53.1768 31.5763 53.0181 31.5746C52.4065 31.568 51.7559 31.5486 51.2472 31.1704C51.0463 31.0211 50.8781 30.8223 50.6767 30.6738C50.183 30.31 49.5633 30.2926 48.9919 30.3227C48.4762 30.3498 48.0669 30.8272 47.5758 31.0104Z" fill="#DE5476"/>
<path d="M47.464 30.8594C47.464 30.8594 42.3623 31.6523 41.6504 35.0883L42.7182 34.9121L43.4696 36.4099C43.4696 36.4099 44.2606 33.062 46.594 32.269C48.9273 31.4761 49.7578 31.3439 49.7578 31.3439C49.7578 31.3439 51.3793 31.7845 52.8426 37.0266L53.6732 35.7491L55.1364 36.1015C55.1364 36.1015 54.0686 32.0047 51.1816 30.8594L47.464 30.8594Z" fill="white"/>
</g>
<defs>
<clipPath id="clip0_2458_11468">
<rect width="102" height="89" fill="white" transform="translate(0 0.5)"/>
</clipPath>
</defs>
</svg>
