<svg width="114" height="128" viewBox="0 0 114 128" fill="none" xmlns="http://www.w3.org/2000/svg">
<path d="M100.941 27.2455C101.66 26.3928 102.13 25.3531 102.299 24.2435C102.468 23.1338 102.329 21.9982 101.898 20.9645C101.466 19.9308 100.759 19.04 99.8565 18.3923C98.9538 17.7446 97.8911 17.3657 96.7881 17.2983C97.1294 16.2536 97.2031 15.1377 97.0022 14.056C96.8013 12.9743 96.3323 11.9624 95.6397 11.116C94.947 10.2696 94.0535 9.61653 93.0435 9.21843C92.0335 8.82034 90.9402 8.69038 89.8671 8.84081C89.7958 7.73704 89.4652 6.66671 88.903 5.71949C88.3408 4.77227 87.5634 3.97575 86.6359 3.39669C85.7084 2.81762 84.6578 2.47287 83.5721 2.39132C82.4865 2.30977 81.3974 2.4938 80.3962 2.92798C79.7518 2.13669 78.9363 1.50727 78.0132 1.08876C77.0901 0.670249 76.0844 0.473941 75.0744 0.515134C74.0644 0.556328 73.0774 0.833906 72.1903 1.32625C71.3032 1.81859 70.54 2.5124 69.96 3.35362C68.8305 3.54026 67.755 3.97613 66.8092 4.63057C65.7668 4.44564 64.6935 4.60793 63.7493 5.09323C62.5879 5.74393 61.5263 6.56381 60.5985 7.52684C59.023 9.02586 57.3656 10.6267 56.8101 12.7457C56.1818 15.1053 57.0105 17.8072 55.8357 19.9447C55.2642 20.7105 54.7585 21.5247 54.324 22.3783C53.7321 24.0994 54.8795 25.9501 54.7429 27.773C54.6063 29.5959 53.0309 31.3725 53.2221 33.3249C53.3565 34.0115 53.6289 34.6625 54.0222 35.2373C54.4155 35.8121 54.9213 36.2982 55.5079 36.6653C56.6822 37.395 57.778 38.2479 58.7771 39.21C59.5057 40.052 59.9701 41.0606 60.6895 41.9397C61.7438 43.1139 63.1985 43.8362 64.758 43.96C66.3175 44.0837 67.8649 43.5996 69.0858 42.6059C69.921 43.2501 70.8957 43.6819 71.9286 43.8654C72.9615 44.0489 74.0226 43.9788 75.0233 43.6608C77.0203 43.0126 78.8997 42.0374 80.5874 40.7738C80.9649 41.2923 81.4639 41.7066 82.0392 41.9791C82.6144 42.2517 83.2476 42.3737 83.8811 42.3342C84.5146 42.2946 85.1283 42.0947 85.6664 41.7527C86.2045 41.4107 86.6499 40.9374 86.9621 40.3759C87.2501 41.0538 87.7517 41.6153 88.388 41.9721C89.0243 42.3288 89.7592 42.4607 90.4772 42.3468C91.9104 42.0918 93.268 41.5097 94.4477 40.6442C96.7607 39.1915 99.3561 37.2853 99.4108 34.5186C99.4108 32.8252 98.5001 31.0764 99.1285 29.5126C99.6106 28.6642 100.222 27.899 100.941 27.2455Z" fill="#1D282E"/>
<path d="M49.3164 16.2172C50.7092 14.2429 52.492 12.5854 54.5508 11.3506C56.6096 10.1159 58.8992 9.33093 61.2734 9.04597C67.8756 7.90782 75.2156 9.04597 80.5793 13.1174C85.4969 16.8187 88.2289 23.0091 88.9938 29.2088C89.2579 31.3926 88.6114 33.4931 88.0103 35.6028C87.0809 38.0522 85.3597 40.1078 83.1292 41.4324C81.2077 42.4595 80.3972 41.8025 78.7853 40.3497C77.8605 39.3796 77.1415 38.2269 76.6726 36.963C74.3413 31.7905 71.6731 26.6642 67.7482 22.602C63.8232 18.5398 58.4594 15.6343 52.8589 15.8101" fill="#EE93D4"/>
<path d="M78.4386 26.449C77.7647 24.5984 78.0561 22.5349 77.8102 20.564C77.2547 16.2427 73.9399 12.5877 69.933 10.9961C65.8428 9.54402 61.3847 9.57017 57.3113 11.0701C54.2319 12.0069 51.4657 13.7869 49.3157 16.2149C47.9581 17.8816 47.0126 19.8539 46.5579 21.9674C46.1033 24.081 46.1527 26.2743 46.7021 28.3645L68.4851 25.4312C70.4082 27.2806 72.6171 28.7967 75.0236 29.919C75.7306 30.2559 76.5138 30.3933 77.2911 30.3169C77.6774 30.2758 78.0437 30.122 78.3459 29.8741C78.6481 29.6262 78.8732 29.2947 78.9941 28.9197C79.0533 28.0584 78.86 27.1987 78.4386 26.449Z" fill="#1D282E"/>
<path d="M56.7721 17.16L75.6956 21.4998C76.5807 21.5693 77.4079 21.974 78.0134 22.6338C78.6188 23.2935 78.9584 24.1602 78.9649 25.0623L78.209 66.8037C78.1706 69.6502 77.2105 72.4047 75.4771 74.6412L73.6557 76.9915C72.6935 78.2352 71.4415 79.2157 70.0128 79.8444C68.5841 80.4732 67.0238 80.7303 65.4728 80.5925C63.9218 80.4547 62.429 79.9265 61.1293 79.0554C59.8297 78.1844 58.7641 76.998 58.0288 75.6035C57.8457 75.2551 57.7051 74.8853 57.6099 74.5024C57.5336 74.1983 57.4788 73.8891 57.446 73.5771C57.1441 71.4852 57.0587 69.367 57.191 67.2571C57.0544 63.5558 57.018 62.0105 57.018 62.0475C57.018 62.0845 49.2592 60.9464 47.3923 50.7493C46.4817 45.6785 46.4817 37.3228 46.7549 30.4847C46.9188 24.3127 50.7253 16.6603 56.7721 17.16Z" fill="#F1AF96"/>
<path d="M50.6279 36.8238C50.6326 37.1659 50.7685 37.4926 51.0066 37.7345C51.2446 37.9764 51.5662 38.1144 51.9029 38.1192C52.0681 38.1292 52.2335 38.1052 52.3894 38.0487C52.5452 37.9921 52.6882 37.9042 52.8098 37.7902C52.9314 37.6761 53.0291 37.5383 53.097 37.3849C53.165 37.2316 53.2017 37.0659 53.2051 36.8978C53.2003 36.5566 53.0642 36.2308 52.8259 35.9904C52.5876 35.75 52.266 35.614 51.9302 35.6116C51.7657 35.6016 51.601 35.6253 51.4457 35.6813C51.2905 35.7373 51.1479 35.8244 51.0264 35.9374C50.9049 36.0505 50.8071 36.1872 50.7386 36.3395C50.6702 36.4918 50.6325 36.6564 50.6279 36.8238Z" fill="#1D282E"/>
<path d="M48.5865 34.7691C48.7504 34.9356 49.7157 34.1676 51.0999 34.1399C52.4841 34.1121 53.5313 34.7876 53.677 34.6025C53.8227 34.4175 53.5769 34.2231 53.1215 33.9085C52.5125 33.4993 51.7933 33.2923 51.0634 33.3163C50.338 33.3309 49.6361 33.5805 49.06 34.0288C48.6411 34.3805 48.5227 34.6951 48.5865 34.7691Z" fill="#1D282E"/>
<path d="M63.8027 36.8238C63.8098 37.1667 63.9476 37.4934 64.1872 37.7351C64.4267 37.9768 64.7492 38.1145 65.0868 38.1192C65.2517 38.1279 65.4166 38.103 65.5719 38.046C65.7272 37.989 65.8697 37.901 65.991 37.7872C66.1124 37.6734 66.2101 37.5361 66.2784 37.3833C66.3468 37.2306 66.3844 37.0655 66.389 36.8978C66.3842 36.555 66.2468 36.2279 66.0065 35.9872C65.7663 35.7465 65.4424 35.6116 65.105 35.6116C64.9405 35.6016 64.7758 35.6253 64.6205 35.6813C64.4653 35.7373 64.3227 35.8244 64.2012 35.9374C64.0797 36.0505 63.9819 36.1872 63.9134 36.3395C63.845 36.4918 63.8073 36.6564 63.8027 36.8238Z" fill="#1D282E"/>
<path d="M62.2648 34.6685C62.4288 34.8351 63.385 34.0763 64.7783 34.0393C66.1716 34.0023 67.2097 34.687 67.3554 34.5112C67.5011 34.3354 67.2553 34.1318 66.7999 33.808C66.1865 33.4018 65.4645 33.1982 64.7327 33.225C64.0104 33.2416 63.312 33.4911 62.7384 33.9375C62.3195 34.2429 62.1829 34.5945 62.2648 34.6685Z" fill="#1D282E"/>
<path d="M57.485 45.2815C56.7476 45.0639 55.9853 44.9457 55.2175 44.9299C54.8624 44.9299 54.5254 44.8374 54.4525 44.5876C54.4208 44.2168 54.4934 43.8446 54.662 43.5142C54.9807 42.5889 55.2995 41.6635 55.6455 40.7382C57.0024 36.7871 57.9768 33.5484 57.822 33.4929C57.6672 33.4374 56.4378 36.5927 55.09 40.5439C54.7622 41.5155 54.4434 42.4501 54.1794 43.3199C53.9631 43.7581 53.9113 44.2614 54.0336 44.7356C54.0883 44.8612 54.1698 44.9729 54.2721 45.0625C54.3745 45.1521 54.4953 45.2175 54.6256 45.2538C54.8256 45.3004 55.0305 45.3222 55.2357 45.3186C55.9841 45.4007 56.7397 45.3883 57.485 45.2815Z" fill="#1D282E"/>
<path d="M56.9561 61.9999C61.7073 61.9574 66.3539 60.5768 70.3792 58.0117C70.3792 58.0117 67.1737 65.183 57.0562 64.489L56.9561 61.9999Z" fill="#D69480"/>
<path d="M58.158 48.6663C58.4139 48.3211 58.7523 48.0481 59.1412 47.8732C59.5301 47.6983 59.9565 47.6273 60.38 47.6669C60.6878 47.6838 60.9889 47.7648 61.2646 47.9049C61.5403 48.045 61.7848 48.2412 61.9828 48.4812C62.1747 48.7123 62.2925 48.9975 62.3202 49.2986C62.3478 49.5997 62.2841 49.9021 62.1376 50.1653C61.9191 50.426 61.6292 50.6145 61.3047 50.7068C60.9803 50.7991 60.6361 50.791 60.3163 50.6835C59.6469 50.4658 59.0274 50.1133 58.4949 49.6471C58.3347 49.5384 58.1958 49.4003 58.0851 49.24C58.0335 49.1621 58.0059 49.0702 58.0059 48.9763C58.0059 48.8823 58.0335 48.7905 58.0851 48.7126" fill="#D69480"/>
<path d="M61.5995 46.1486C61.3719 46.1486 61.4083 47.6754 60.1516 48.795C58.8949 49.9147 57.2739 49.7944 57.2648 50.0072C57.2557 50.22 57.6291 50.2941 58.3121 50.2941C59.1966 50.2878 60.0496 49.9595 60.7162 49.3687C61.3615 48.809 61.7666 48.0156 61.8454 47.1572C61.8819 46.5095 61.7088 46.1394 61.5995 46.1486Z" fill="#1D282E"/>
<path d="M61.918 30.4013C62.0637 30.7807 63.4479 30.5678 65.0871 30.7159C66.7263 30.8639 68.0559 31.2896 68.2653 30.9472C68.3564 30.7807 68.1196 30.4198 67.5732 30.0219C66.8516 29.5869 66.0422 29.3242 65.2061 29.2537C64.37 29.1831 63.529 29.3066 62.7467 29.6147C62.1821 29.9108 61.8543 30.2255 61.918 30.4013Z" fill="#1D282E"/>
<path d="M48.8326 28.5761C49.0875 28.8907 50.0346 28.5761 51.1912 28.4836C52.3477 28.3911 53.3221 28.6409 53.5316 28.2985C53.6317 28.132 53.4678 27.8173 53.0307 27.5212C52.4537 27.1657 51.7823 27.0008 51.1092 27.0493C50.4317 27.0812 49.7801 27.3234 49.2424 27.7433C48.8417 28.0857 48.7233 28.4188 48.8326 28.5761Z" fill="#1D282E"/>
<path d="M81.9546 23.5181C80.0604 17.6238 71.564 9.5087 65.4808 9.98062L55.8096 15.986C56.1357 17.6632 56.8994 19.2206 58.0209 20.4952C59.1423 21.7698 60.5802 22.7148 62.1842 23.2313C63.9053 23.7587 65.9816 23.8883 67.0107 25.378C68.0397 26.8678 67.4751 29.1441 68.4586 30.7264C69.8246 32.9102 73.5037 32.7806 74.5327 35.1402C74.9789 36.1766 74.7604 37.4165 75.2248 38.4436C75.8441 39.8039 79.2773 41.525 80.6888 41.0531C82.1003 40.5811 82.0912 38.1475 82.5101 36.8613C83.0842 35.413 83.1454 33.807 82.6831 32.318C82.0912 29.431 82.8562 26.3404 81.9546 23.5181Z" fill="#1D282E"/>
<path d="M85.7323 19.1152L84.9855 22.3724C85.0185 20.0487 84.44 17.7582 83.3099 15.7378C80.8785 12.0365 75.5329 9.49186 71.3165 8.26117C67.1002 7.03049 61.9185 7.78001 57.8388 9.43634C54.1672 10.8426 51.0101 13.3624 48.7959 16.6539C45.6997 20.9104 44.9803 27.3229 46.8927 28.461C48.4044 24.0472 50.7994 18.9857 54.5968 16.3393C56.4782 14.9806 58.6296 14.057 60.8998 13.6334C63.17 13.2097 65.5039 13.2964 67.7377 13.8872C72.6552 15.3584 76.398 19.5872 78.5745 24.2971C79.6357 26.7109 80.4622 29.2243 81.0424 31.8015C81.7501 34.8279 81.7283 37.9832 80.9786 40.9992L78.5199 49.7435L78.4652 52.5843C84.4483 50.3357 88.1455 43.9972 89.1382 37.594C90.1308 31.1907 89.4205 24.9911 85.7323 19.1152Z" fill="#EE93D4"/>
<path d="M80.6966 38.5558C80.6511 38.5558 80.8605 38.0283 81.0153 37.066C81.2138 35.7055 81.108 34.317 80.7057 33.0038C80.1335 31.0543 78.9054 29.3709 77.2361 28.2476C76.2111 27.6376 75.1462 27.0996 74.0488 26.6376C72.8261 26.1293 71.7218 25.3665 70.8068 24.3983C70.0268 23.3303 69.3927 22.16 68.9218 20.9191C68.2521 19.4591 67.197 18.2166 65.8739 17.3295C64.5508 16.4425 63.0114 15.9458 61.427 15.8946C60.0753 15.8647 58.7341 16.143 57.5021 16.7088C56.5914 17.116 56.1999 17.4491 56.1816 17.4121C56.266 17.3119 56.3641 17.2247 56.473 17.153C56.7736 16.9214 57.0936 16.7171 57.4292 16.5423C58.9765 15.7252 60.7309 15.4027 62.4619 15.6174C64.1928 15.8321 65.8193 16.5739 67.1278 17.7452C68.0596 18.5692 68.8131 19.5806 69.3407 20.7155C69.8022 21.9134 70.4144 23.0455 71.162 24.0837C72.0378 24.9991 73.0883 25.7233 74.2491 26.2119C75.3612 26.6887 76.4385 27.2453 77.4728 27.8775C78.9161 28.8809 80.0381 30.2923 80.7001 31.9369C81.3621 33.5815 81.535 35.3873 81.1975 37.1308C81.119 37.5066 81.0093 37.8749 80.8696 38.2319C80.8265 38.3472 80.7683 38.4562 80.6966 38.5558Z" fill="#DE5476"/>
<path d="M79.776 27.5892C79.776 27.5892 79.5575 27.2191 79.0384 26.6639C78.2487 25.9585 77.3463 25.3952 76.3702 24.9983C75.7691 24.7114 75.0861 24.4061 74.394 23.9897C73.6266 23.5663 72.961 22.9753 72.4452 22.2593C71.3615 20.7233 71.0155 18.6506 69.5766 17.2256C68.2204 15.8792 66.4676 15.0212 64.5862 14.7827C63.0587 14.6044 61.5115 14.7334 60.0329 15.1621C58.6585 15.6065 57.314 16.1412 56.0078 16.7629C56.3081 16.5066 56.6384 16.289 56.9913 16.1152C57.9275 15.5821 58.9165 15.151 59.9419 14.829C61.4734 14.3357 63.0892 14.1719 64.6864 14.3478C66.676 14.568 68.534 15.4647 69.9591 16.8924C71.5163 18.4562 71.8533 20.5937 72.8459 22.0002C73.8385 23.4067 75.3957 24.0637 76.5614 24.6929C77.5573 25.1242 78.4583 25.7534 79.2114 26.5436C79.4111 26.7624 79.5797 27.0084 79.7123 27.2746C79.7487 27.4782 79.7942 27.58 79.776 27.5892Z" fill="#DE5476"/>
<path d="M76.5537 42.2923C76.5537 41.5336 77.3551 39.7107 78.0927 39.5719C80.0598 39.211 83.6295 39.2758 83.7934 44.3836C84.0211 51.3605 77.0819 50.1484 77.0637 49.9355C77.0455 49.7227 76.6084 44.9295 76.5537 42.2923Z" fill="#F1AF96"/>
<path d="M79.0743 47.1957C79.0743 47.1957 79.1927 47.279 79.4022 47.3715C79.694 47.4928 80.021 47.4928 80.3128 47.3715C80.7537 47.0698 81.1059 46.6524 81.332 46.1636C81.5581 45.6748 81.6497 45.1329 81.5969 44.5955C81.5966 43.9961 81.4627 43.4045 81.2053 42.8652C81.1387 42.6475 81.021 42.4495 80.8623 42.2883C80.7037 42.1271 80.5089 42.0075 80.2946 41.9398C80.1559 41.9069 80.0101 41.925 79.8834 41.9911C79.7566 42.0572 79.6571 42.167 79.6025 42.3007C79.5115 42.495 79.557 42.6338 79.5206 42.6431C79.4841 42.6523 79.3749 42.532 79.4204 42.2452C79.4553 42.0728 79.5449 41.9168 79.6754 41.801C79.8595 41.649 80.0947 41.5759 80.331 41.5974C80.6155 41.6448 80.8831 41.7659 81.1081 41.9491C81.333 42.1322 81.5076 42.3713 81.6151 42.6431C81.9271 43.2354 82.0927 43.8959 82.0977 44.5677C82.0977 45.9835 81.4329 47.3437 80.4494 47.6398C80.2668 47.702 80.0726 47.7209 79.8816 47.6953C79.6907 47.6696 79.508 47.6 79.3475 47.4918C79.0926 47.4085 79.047 47.2512 79.0743 47.1957Z" fill="#D69480"/>
<path d="M84.849 47.7804C84.9293 47.5318 85.0361 47.2929 85.1677 47.0679C85.3862 46.596 85.705 45.9113 86.0328 44.9952C86.9512 42.3962 87.4016 39.6505 87.3624 36.8894C87.3253 34.9853 87.1303 33.0879 86.7795 31.2171C86.4262 29.0666 85.8775 26.954 85.1404 24.9064C84.3128 22.6498 83.1521 20.5344 81.6981 18.6327C80.1248 16.6056 78.2287 14.8604 76.0884 13.4694C71.9183 10.7643 66.9405 9.64654 62.0369 10.314C59.9128 10.5945 57.8467 11.2193 55.9173 12.1647C54.2391 12.9958 52.6873 14.0679 51.3094 15.3478C49.3075 17.2114 47.6942 19.4644 46.5648 21.9731C46.1824 22.8984 45.9274 23.5832 45.7726 24.0736C45.7033 24.3257 45.6181 24.5729 45.5176 24.8139C45.5474 24.553 45.6023 24.2958 45.6815 24.0458C45.8764 23.3155 46.1167 22.5985 46.4009 21.8991C48.2349 17.5122 51.5475 13.933 55.7443 11.8038C57.7064 10.8191 59.8134 10.1659 61.9823 9.86986C66.9898 9.15427 72.0841 10.2834 76.3434 13.053C80.5961 15.8088 83.8304 19.9185 85.541 24.7398C86.2822 26.8172 86.828 28.9611 87.1711 31.1431C87.506 33.0369 87.6827 34.9561 87.6993 36.8801C87.7159 39.6752 87.209 42.448 86.2058 45.0507C85.9387 45.7485 85.6347 46.4312 85.2952 47.0957C85.1642 47.3354 85.015 47.5644 84.849 47.7804Z" fill="#1D282E"/>
<path d="M81.9362 49.0468C82.0272 48.9172 82.2458 48.8617 82.5554 49.0468C82.762 49.1653 82.9423 49.3259 83.0849 49.5186C83.2275 49.7113 83.3294 49.9318 83.3841 50.1664C83.4785 50.5099 83.4941 50.8708 83.4296 51.2213C83.3483 51.6592 83.1498 52.0657 82.8559 52.3965C82.5304 52.7609 82.1181 53.0341 81.6586 53.1898C81.1992 53.3455 80.708 53.3784 80.2324 53.2855C79.7568 53.1926 79.3127 52.9768 78.9428 52.6591C78.573 52.3413 78.2898 51.9322 78.1205 51.4711C77.9812 51.1223 77.9157 50.7476 77.9283 50.3714C77.9408 49.9951 78.0311 49.6258 78.1934 49.2874C78.3 49.0544 78.4582 48.8496 78.6557 48.6891C78.8532 48.5285 79.0846 48.4166 79.3317 48.362C79.7051 48.3065 79.8872 48.4823 79.9054 48.6396C79.9005 48.8198 79.8666 48.998 79.8052 49.1671C79.7723 49.3817 79.7723 49.6002 79.8052 49.8148C79.8587 50.0687 79.9642 50.3083 80.1149 50.518C80.2524 50.709 80.4527 50.8436 80.6795 50.8974C80.9061 50.9366 81.1391 50.9009 81.3442 50.7956C81.439 50.7478 81.5229 50.6802 81.5903 50.5973C81.6578 50.5144 81.7074 50.4181 81.7358 50.3145C81.9088 49.8055 81.754 49.3151 81.9362 49.0468Z" fill="#DE5476"/>
<path d="M28.0426 92.7561C28.0426 92.7561 29.1809 83.5029 33.5976 78.8115C38.0143 74.1201 57.0835 68.1517 57.0835 68.1517C57.0835 68.1517 57.211 74.9806 61.6368 76.5814C66.3176 78.2748 70.8709 77.3772 74.304 73.3336C76.3528 70.8023 77.718 67.7728 78.2654 64.543C78.2654 64.543 101.36 66.7175 104.948 72.8709C108.536 79.0243 113.18 102.768 113.18 102.768L92.581 107.21L95.3858 148.174H40.6552L41.7298 109.736L26.8223 111.892L28.0426 92.7561Z" fill="#DE5476"/>
<path d="M88.4922 108.564C88.431 108.259 88.4065 107.949 88.4193 107.638C88.4193 107.037 88.4193 106.176 88.4193 105.122C88.4193 102.993 88.4193 100.06 88.5195 96.7936C88.6197 93.5272 88.6652 90.6217 88.7563 88.4656C88.8018 87.4015 88.8382 86.541 88.8838 85.9488C88.8756 85.6366 88.9124 85.3248 88.993 85.0234C89.0588 85.3271 89.0833 85.6384 89.0659 85.9488C89.0659 86.541 89.0659 87.4015 89.0659 88.4656C89.0659 90.5846 89.0659 93.5179 88.9657 96.7936C88.8655 100.069 88.8109 102.965 88.7198 105.122C88.7198 106.186 88.6379 107.046 88.6014 107.638C88.6102 107.951 88.5733 108.262 88.4922 108.564Z" fill="#1D282E"/>
<path d="M36.6858 91.7012C36.8133 91.7012 38.0974 95.8189 39.5635 100.954C41.0297 106.09 42.1043 110.337 41.9768 110.365C40.8683 107.331 39.9109 104.243 39.1082 101.112C37.5965 95.9484 36.531 91.7382 36.6858 91.7012Z" fill="#1D282E"/>
<path d="M102.642 71.3838C102.642 71.467 101.658 71.6521 100.156 72.2351C96.2112 73.7633 92.929 76.6656 90.8945 80.4242C90.1204 81.8585 89.8017 82.83 89.7197 82.8023C89.735 82.5581 89.7872 82.3178 89.8745 82.0898C90.0613 81.453 90.302 80.8338 90.594 80.2391C91.5538 78.288 92.8827 76.5483 94.5046 75.1193C96.1266 73.6904 98.0098 72.6002 100.047 71.9112C100.662 71.7046 101.292 71.5469 101.932 71.4393C102.387 71.3745 102.633 71.3468 102.642 71.3838Z" fill="#1D282E"/>
<path d="M33.2607 80.6914C33.7265 81.5977 34.0521 82.5714 34.226 83.5784C34.5506 84.5474 34.7227 85.5623 34.736 86.5857C33.9428 84.7118 33.445 82.7227 33.2607 80.6914Z" fill="#1D282E"/>
<path d="M109.538 103.566C109.538 103.566 103.363 135.398 102.662 138.118C101.961 140.839 100.841 148.176 93.3461 149.694C83.2559 151.739 43.6514 150.314 43.6514 150.314L51.1188 140.7L85.7785 130.827L90.5139 107.693L109.538 103.566Z" fill="#F1AF96"/>
<path d="M17.2881 97.6535C17.2881 97.6535 22.8704 116.743 25.1835 124.997C27.6514 133.76 33.0243 153.682 44.4986 150.138C53.2227 147.445 50.6546 135.953 50.6546 135.953L41.7302 109.738L34.7819 110.913L28.043 93.2305L17.2881 97.6535Z" fill="#F1AF96"/>
<path d="M47.6115 136.777C47.9227 135.357 47.9227 133.885 47.6115 132.465C47.2562 130.936 46.6397 129.483 45.7902 128.171C44.6904 126.574 43.4727 125.065 42.1476 123.656C40.8179 122.227 39.6 120.696 38.5049 119.075C37.6317 117.734 36.8673 116.323 36.2192 114.856C35.7888 113.868 35.4177 112.854 35.1082 111.821C34.9712 111.448 34.8794 111.059 34.835 110.664C35.0134 111.015 35.1627 111.38 35.2812 111.756C35.5544 112.468 35.946 113.486 36.5288 114.708C37.2056 116.138 37.9879 117.515 38.8692 118.825C39.9768 120.416 41.194 121.925 42.5118 123.341C43.8528 124.776 45.0713 126.323 46.1544 127.968C47.03 129.326 47.6477 130.839 47.9758 132.428C48.1956 133.501 48.211 134.606 48.0213 135.685C47.9618 135.975 47.8796 136.26 47.7754 136.536C47.657 136.693 47.6115 136.786 47.6115 136.777Z" fill="#D69480"/>
<path d="M7.98041 61.7859C7.98041 61.7859 8.89106 60.4904 11.1404 62.4891C13.3897 64.4878 22.4872 80.1906 23.1975 81.6341C23.9078 83.0776 28.0422 93.2284 28.0422 93.2284L18.8264 99.863L17.2873 97.6515C17.2873 97.6515 9.55585 90.6838 7.98041 88.7591C6.59678 87.1484 5.33352 85.4348 4.20117 83.6328C4.11921 83.2349 3.57282 81.2085 5.11183 80.6163C5.11183 80.6163 3.60924 78.1919 4.94791 76.989C6.28658 75.7861 8.73625 76.9057 8.73625 76.9057L0.540318 66.1719C0.540318 66.1719 -0.169997 62.9703 2.19772 64.1732C4.56543 65.3761 10.7852 74.5831 11.8871 74.8237C12.989 75.0643 12.989 73.8984 12.989 73.8984C12.989 73.8984 6.56889 63.9697 7.98041 61.7859Z" fill="#F1AF96"/>
<path d="M16.4131 89.9623C16.4131 89.9623 16.322 89.8142 16.2218 89.5181C16.0681 89.0845 15.9643 88.6342 15.9122 88.1764C15.7838 87.3403 15.8267 86.4863 16.0382 85.6679C16.2498 84.8494 16.6254 84.0842 17.1416 83.4202V83.6793C16.3129 82.6614 15.4114 81.5325 14.4096 80.3389L14.4734 80.3944C13.8268 80.015 13.162 79.5986 12.4972 79.1544L11.4864 78.4512C11.1302 78.2063 10.7979 77.9274 10.4938 77.6184C10.2016 77.3182 10.0268 76.9203 10.002 76.4988C9.99983 76.2858 10.0426 76.0749 10.1274 75.8801C10.2123 75.6854 10.3372 75.5114 10.4938 75.3699L10.5758 75.2773H10.7032L16.3766 76.9152L20.8389 80.2926C21.4214 80.6991 21.9697 81.154 22.4781 81.6528C21.8624 81.3062 21.2693 80.9199 20.7023 80.4962L16.149 77.2483H16.2127L10.5302 75.6752H10.7397C10.6391 75.7735 10.559 75.8913 10.5043 76.0216C10.4495 76.152 10.4212 76.2923 10.4209 76.434C10.4487 76.7385 10.5808 77.0234 10.7943 77.239C11.0741 77.5228 11.3789 77.7799 11.705 78.0071L12.6885 78.701C13.3442 79.1452 13.9998 79.5616 14.6373 79.9317C15.548 81.1532 16.4586 82.2913 17.2873 83.3184L17.3875 83.448L17.2782 83.5775C16.7079 84.2663 16.311 85.0856 16.1217 85.9648C15.9693 86.6442 15.9232 87.3437 15.9851 88.0376C16.2401 89.3145 16.4677 89.9437 16.4131 89.9623Z" fill="#D69480"/>
<path d="M8.87353 77.4355C9.16529 77.7131 9.42498 78.0236 9.64759 78.3609C10.3009 79.263 10.8883 80.2124 11.4052 81.2016C11.7719 81.8886 12.1003 82.5961 12.3887 83.3206C12.5665 83.7568 12.6109 84.2372 12.5162 84.6994C12.4454 84.9588 12.3033 85.1924 12.1065 85.3726C11.9097 85.5529 11.6664 85.6725 11.4052 85.7172C10.891 85.8172 10.3586 85.7286 9.90258 85.4674C9.44952 85.2283 9.02739 84.933 8.64587 84.5883C7.87569 83.8779 7.19923 83.0693 6.63331 82.1825C6.29637 81.692 5.99585 81.1924 5.72265 80.7205L6.09603 80.4429C7.28083 81.8371 8.2903 83.3757 9.1012 85.0232C9.30331 85.4169 9.40358 85.8563 9.39261 86.3002C9.38112 86.5216 9.32022 86.7375 9.21452 86.9314C9.10881 87.1254 8.96107 87.2924 8.78247 87.4198C8.60303 87.5179 8.40394 87.573 8.20036 87.581C7.99678 87.589 7.79409 87.5497 7.60772 87.4661C7.29753 87.3251 7.0116 87.1346 6.7608 86.9016C6.03437 86.2429 5.37534 85.5113 4.79378 84.7179C4.56629 84.4378 4.37924 84.1262 4.23828 83.7925C5.08746 84.8015 6.00002 85.7534 6.97026 86.6425C7.40738 87.0034 8.07216 87.4106 8.59123 87.0775C8.71551 86.9798 8.81678 86.8552 8.88767 86.7127C8.95856 86.5702 8.99729 86.4135 9.00103 86.2539C8.99899 85.8827 8.90837 85.5176 8.73693 85.1898C7.90097 83.598 6.88973 82.108 5.72265 80.7482L6.10513 80.4706C6.38743 80.9333 6.69706 81.396 7.01579 81.9141C7.57001 82.7742 8.22774 83.5607 8.97371 84.2552C9.70223 84.8752 10.5491 85.4859 11.3414 85.3101C11.5263 85.2806 11.6994 85.1991 11.841 85.0748C11.9827 84.9505 12.0872 84.7884 12.1428 84.6068C12.2181 84.2256 12.1833 83.8303 12.0426 83.4687C11.7694 82.7192 11.4325 82.0067 11.132 81.3774C10.6489 80.3849 10.1107 79.421 9.5201 78.4904C9.27065 78.1615 9.05406 77.8081 8.87353 77.4355Z" fill="#D69480"/>
</svg>
